# xmcd
#
# Track frame offsets:
#	150
#	37311
#	74985
#	113735
#	151316
#	187329
#	224933
#	260796
#	298480
#
# Disc length: 4505 seconds
#
# Revision: 1
# Processed by: cddbd v1.5.1PL2 Copyright (c) Steve Scherf et al.
# Submitted via: audiograbber 1.81.03
#
DISCID=ac119709
DTITLE=Melachrino, George - Great Film and Show Tunes
DYEAR=2003
DGENRE=Musical
TTITLE0=Call Me Madam
TTITLE1=Kiss Me, Kate
TTITLE2=Show Boat
TTITLE3=Carousel
TTITLE4=The Dancing Years
TTITLE5=Three Little Words
TTITLE6=You're My Everything
TTITLE7=Cole Porter Fantasy
TTITLE8=Gershwin Fantasy
EXTD=
EXTT0=
EXTT1=
EXTT2=
EXTT3=
EXTT4=
EXTT5=
EXTT6=
EXTT7=
EXTT8=
PLAYORDER=
